<?xml version="1.0" encoding="UTF-8"?>
<svg width="259px" height="46px" viewBox="0 0 259 46" version="1.1" xmlns="http://www.w3.org/2000/svg" xmlns:xlink="http://www.w3.org/1999/xlink">
    <!-- Generator: Sketch 46.2 (44496) - http://www.bohemiancoding.com/sketch -->
    <title>Letters@3x</title>
    <desc>Created with Sketch.</desc>
    <defs></defs>
    <g id="Page-1" stroke="none" stroke-width="1" fill="none" fill-rule="evenodd">
        <g id="Artboard" transform="translate(-14.000000, -109.000000)" fill="#FFFFFF">
            <g id="Letters" transform="translate(14.000000, 109.263158)">
                <polygon id="Shape" points="7.97894737 9.22105263 8.81052632 10.8421053 9.09473684 9.04210526 10.8947368 8.75789474 9.27368421 7.93684211 9.55789474 6.13684211 8.26315789 7.42105263 6.64210526 6.6 7.47368421 8.22105263 6.17894737 9.50526316"></polygon>
                <polygon id="Shape" points="1.83157895 19.4631579 3.25263158 18.3157895 4.26315789 18.9789474 4.77894737 19.3052632 4.77894737 19.3052632 4.77894737 19.3052632 4.51578947 18.6421053 4.12631579 17.6105263 5.53684211 16.4631579 5.53684211 16.4631579 5.53684211 16.4631579 3.71578947 16.5578947 3.06315789 14.8631579 3.03157895 14.9789474 2.6 16.6210526 0.778947368 16.7157895 2.30526316 17.7052632"></polygon>
                <polygon id="Shape" points="6.02105263 32.1263158 6.21052632 30.3157895 5 31.6631579 3.32631579 30.9263158 4.24210526 32.5052632 3.02105263 33.8526316 4.8 33.4736842 5.71578947 35.0526316 5.90526316 33.2421053 7.68421053 32.8631579"></polygon>
                <polygon id="Shape" points="10.8631579 36.3684211 9.06315789 36.0842105 8.77894737 34.2947368 7.94736842 35.9157895 6.15789474 35.6315789 7.44210526 36.9157895 6.61052632 38.5368421 8.24210526 37.7052632 9.52631579 38.9894737 9.24210526 37.2"></polygon>
                <polygon id="Shape" points="3.70526316 28.5578947 5.52631579 28.6526316 4.11578947 27.5157895 4.76842105 25.8105263 3.24210526 26.8 1.82105263 25.6631579 2.29473684 27.4210526 0.768421053 28.4 2.58947368 28.4947368 3.05263158 30.2526316"></polygon>
                <polygon id="Shape" points="1.73684211 24.9368421 2.8 23.4736842 4.53684211 24.0315789 3.46315789 22.5578947 4.53684211 21.0947368 2.8 21.6526316 1.73684211 20.1789474 1.73684211 22 0 22.5578947 1.73684211 23.1263158"></polygon>
                <polygon id="Shape" points="41.5578947 16.6 39.7368421 16.5052632 41.1473684 17.6526316 40.4947368 19.3473684 42.0210526 18.3578947 43.4421053 19.5052632 42.9684211 17.7473684 44.4947368 16.7578947 42.6736842 16.6631579 42.2 14.9052632"></polygon>
                <polygon id="Shape" points="42.4631579 23.5052632 43.5263158 24.9789474 43.5263158 23.1578947 45.2631579 22.6 43.5263158 22.0421053 43.5263158 20.2210526 42.4631579 21.6947368 40.7263158 21.1263158 41.8 22.6 40.7263158 24.0736842"></polygon>
                <polygon id="Shape" points="34.4 8.78947368 36.2 9.07368421 36.4842105 10.8631579 37.3052632 9.25263158 39.1052632 9.53684211 37.8210526 8.24210526 38.6526316 6.63157895 37.0210526 7.45263158 35.7368421 6.16842105 36.0210526 7.96842105"></polygon>
                <polygon id="Shape" points="32.2315789 6.03157895 32.9684211 7.68421053 33.3473684 5.91578947 35.1684211 5.72631579 33.5894737 4.81052632 33.9684211 3.03157895 32.6105263 4.25263158 31.0315789 3.33684211 31.7684211 5 30.4210526 6.22105263"></polygon>
                <polygon id="Shape" points="39.2421053 13.0315789 39.0526316 14.8421053 40.2736842 13.4947368 41.9368421 14.2315789 41.0210526 12.6631579 42.2421053 11.3052632 40.4631579 11.6842105 39.5473684 10.1157895 39.3578947 11.9157895 37.5789474 12.2947368"></polygon>
                <polygon id="Shape" points="28.7157895 39.6421053 27.5684211 41.0526316 25.8736842 40.4 26.8631579 41.9263158 25.7157895 43.3368421 27.4736842 42.8736842 28.4736842 44.4 28.5684211 42.5789474 30.3263158 42.1157895 28.6210526 41.4631579"></polygon>
                <polygon id="Shape" points="33.3157895 39.2631579 32.9368421 37.4947368 32.2 39.1473684 30.3894737 38.9578947 31.7368421 40.1789474 31 41.8421053 32.5789474 40.9263158 33.9263158 42.1473684 33.5473684 40.3684211 35.1263158 39.4631579"></polygon>
                <polygon id="Shape" points="37.2842105 35.9368421 36.4526316 34.3157895 36.1684211 36.1157895 34.3684211 36.4 35.9894737 37.2315789 35.7052632 39.0210526 37 37.7368421 38.6210526 38.5578947 37.7894737 36.9368421 39.0842105 35.6526316"></polygon>
                <polygon id="Shape" points="28.5052632 0.778947368 27.5157895 2.29473684 25.7578947 1.83157895 26.9052632 3.24210526 25.9052632 4.76842105 27.6105263 4.11578947 28.7578947 5.52631579 28.6631579 3.71578947 30.3578947 3.06315789 28.6 2.58947368"></polygon>
                <polygon id="Shape" points="43.4315789 25.6947368 42.0105263 26.8421053 40.4842105 25.8526316 41.1368421 27.5473684 39.7263158 28.6947368 41.5473684 28.6 42.2 30.2947368 42.6631579 28.5368421 44.4842105 28.4421053 42.9578947 27.4526316"></polygon>
                <polygon id="Shape" points="22.6526316 0 22.6526316 0 22.0842105 1.72631579 20.2631579 1.72631579 21.7368421 2.8 21.1789474 4.52631579 22.6526316 3.46315789 24.1263158 4.52631579 23.5578947 2.8 25.0315789 1.72631579 23.2105263 1.72631579"></polygon>
                <polygon id="Shape" points="41.9157895 30.9578947 40.2526316 31.7052632 39.0315789 30.3473684 39.2210526 32.1578947 37.5578947 32.8947368 39.3368421 33.2736842 39.5263158 35.0842105 40.4421053 33.5052632 42.2210526 33.8842105 41 32.5368421"></polygon>
                <polygon id="Shape" points="16.7894737 0.768421053 16.6947368 2.57894737 14.9368421 3.05263158 16.6421053 3.70526316 16.5473684 5.51578947 17.6842105 4.10526316 19.3894737 4.75789474 18.4 3.23157895 19.5473684 1.82105263 17.7894737 2.28421053"></polygon>
                <polygon id="Shape" points="14.2631579 3.32631579 12.6842105 4.23157895 11.3368421 3.01052632 11.7157895 4.78947368 10.1368421 5.70526316 11.9473684 5.89473684 12.3263158 7.67368421 13.0631579 6.01052632 14.8736842 6.2 13.5263158 4.97894737"></polygon>
                <polygon id="Shape" points="19.3578947 40.4 17.6526316 41.0421053 16.5052632 39.6315789 16.6 41.4526316 14.8947368 42.1052632 16.6631579 42.5684211 16.7578947 44.3894737 17.7473684 42.8631579 19.5052632 43.3368421 18.3578947 41.9157895"></polygon>
                <polygon id="Shape" points="13.0315789 39.1263158 12.2947368 37.4736842 11.9157895 39.2526316 10.0947368 39.4421053 11.6736842 40.3473684 11.2947368 42.1263158 12.6526316 40.9052632 14.2315789 41.8210526 13.4842105 40.1578947 14.8421053 38.9368421"></polygon>
                <polygon id="Shape" points="24.0842105 40.6315789 22.6105263 41.7052632 21.1368421 40.6315789 21.6947368 42.3578947 20.2210526 43.4315789 22.0526316 43.4315789 22.6105263 45.1578947 23.1789474 43.4315789 25 43.4315789 23.5263158 42.3578947"></polygon>
                <polygon id="Shape" points="3.30526316 11.5684211 4.26315789 12.6210526 3.81052632 13.4105263 3.34736842 14.2 3.34736842 14.2 3.34736842 14.2 5.01052632 13.4631579 6.23157895 14.8105263 6.04210526 13 7.70526316 12.2631579 5.92631579 11.8842105 5.73684211 10.0736842 4.82105263 11.6526316 3.93684211 11.4631579 3.04210526 11.2736842 3.04210526 11.2736842 3.04210526 11.2736842"></polygon>
                <path d="M24.6210526,8.25263158 C25.7902838,8.19719119 26.9591836,8.36877282 28.0631579,8.75789474 C28.6317778,9.0970199 29.0077445,9.68387637 29.0781305,10.3421926 C29.1485165,11.0005088 28.9051214,11.6535864 28.4210526,12.1052632 C28.1645228,12.3153002 27.8897471,12.5020068 27.6,12.6631579 L34.7368421,30.6526316 C34.8634085,30.9301083 34.8634085,31.248839 34.7368421,31.5263158 C34.4677035,32.0012123 33.9668597,32.2977119 33.4210526,32.3052632 C33.2704178,32.3079498 33.1205684,32.2829749 32.9789474,32.2315789 C32.6913269,32.1249423 32.4645314,31.8981468 32.3578947,31.6105263 L30.0631579,25.8105263 L30.0105263,25.8105263 C29.0209671,26.4723543 27.9291637,26.9666888 26.7789474,27.2736842 C26.1052632,27.4736842 25.3789474,27.6631579 24.6736842,27.8105263 L25.8736842,35.5263158 C25.928169,35.8291747 25.8474007,36.1407098 25.6526316,36.3789474 C25.4436451,36.627161 25.1521044,36.7916198 24.8315789,36.8421053 L24.5473684,36.8421053 C24.2797324,36.8463957 24.0165536,36.7732905 23.7894737,36.6315789 C23.5320283,36.4664463 23.3591368,36.197504 23.3157895,35.8947368 L22.1157895,28.1789474 C21.6315789,28.1789474 21.1578947,28.2736842 20.6947368,28.2947368 L19.6421053,28.2947368 C18.5279366,28.3262215 17.4158379,28.1805472 16.3473684,27.8631579 L15.9368421,34.0736842 C15.9229569,34.3791017 15.7769697,34.6633926 15.5368421,34.8526316 C15.2949888,35.0361241 14.9982554,35.1325625 14.6947368,35.1263158 L14.6315789,35.1263158 C14.2617175,35.1194764 13.9081749,34.9727938 13.6421053,34.7157895 C13.4258999,34.4994513 13.314481,34.1997728 13.3368421,33.8947368 L14.5263158,14.8421053 C14.2392188,14.7855849 13.9574882,14.7045873 13.6842105,14.6 C13.101532,14.2946092 12.6951062,13.7343995 12.5856152,13.0857167 C12.4761241,12.4370338 12.6761565,11.7744601 13.1263158,11.2947368 C14.2421053,10.2421053 17.0315789,9.18947368 20.4,8.64210526 C21.793927,8.39652796 23.2057241,8.26626239 24.6210526,8.25263158 Z M17.8421053,13.2736842 C16.4238999,13.3792561 15.0054446,13.0721678 13.7578947,12.3894737 C14.2421053,13.2631579 15.9473684,13.7684211 18.1789474,13.7684211 C19.2382684,13.7646747 20.2951241,13.6660349 21.3368421,13.4736842 C24.7052632,12.8631579 27.3789474,11.4736842 27.9263158,10.1368421 C26.8736842,11.2842105 24.3789474,12.3894737 21.3368421,12.9368421 C20.1842572,13.1527725 19.0147139,13.2654996 17.8421053,13.2736842 L17.8421053,13.2736842 Z M23.7473684,22.3368421 C24.5724661,22.2476973 25.4016821,22.2020201 26.2315789,22.2 C27.0574526,22.1918352 27.8822275,22.2623288 28.6947368,22.4105263 L25.2631579,13.6842105 C24.3658724,13.9853092 23.4520994,14.2348395 22.5263158,14.4315789 L23.7473684,22.3368421 Z M16.5052632,24.2947368 C17.3018816,23.8585397 18.141424,23.5057908 19.0105263,23.2421053 C19.6842105,23.0315789 20.4315789,22.8526316 21.1894737,22.6947368 L20,14.8631579 C19.0571456,14.9817738 18.1081508,15.0450401 17.1578947,15.0526316 L16.5052632,24.2947368 Z M24.3473684,26.1894737 C25.5166599,25.9539583 26.6592653,25.6013023 27.7578947,25.1368421 C28.2976401,24.9365517 28.7968531,24.6405897 29.2315789,24.2631579 C28.2796229,23.9122742 27.2654615,23.7617626 26.2526316,23.8210526 C25.5035529,23.8233984 24.7551284,23.8655632 24.0105263,23.9473684 L24.3473684,26.1894737 Z M19.5473684,26.7157895 L19.5473684,26.7157895 C20.2788859,26.7115628 21.009692,26.6694009 21.7368421,26.5894737 L21.4,24.4 C20.2013329,24.6270895 19.0299467,24.9799167 17.9052632,25.4526316 C17.3968663,25.6460802 16.9265213,25.9275746 16.5157895,26.2842105 C17.484944,26.6387753 18.5177696,26.7858095 19.5473684,26.7157895 L19.5473684,26.7157895 Z M24.6210526,7.16842105 C23.1459191,7.18128281 21.674323,7.31506426 20.2210526,7.56842105 C16.7052632,8.16842105 13.6842105,9.28421053 12.3894737,10.5263158 C11.6215423,11.2604789 11.2871911,12.3391595 11.5052632,13.3789474 C11.6664032,14.3904588 12.3393792,15.2466117 13.2842105,15.6421053 L13.3789474,15.6421053 L12.1684211,33.9263158 C12.1236988,34.5363876 12.3465367,35.1357448 12.7789474,35.5684211 C13.2402232,36.0239187 13.857243,36.2872808 14.5052632,36.3052632 L14.6105263,36.3052632 C15.162996,36.3109392 15.701064,36.1291094 16.1368421,35.7894737 C16.6090934,35.4090125 16.8994541,34.8473937 16.9368421,34.2421053 L16.9368421,34.2421053 L17.2631579,29.3157895 C18.0228925,29.4271599 18.7900661,29.4799471 19.5578947,29.4736842 L20.6736842,29.4736842 L21.1263158,29.4736842 L22.1789474,36.1789474 C22.2681067,36.7863426 22.6179498,37.3245627 23.1368421,37.6526316 C23.541994,37.9116858 24.01387,38.0470301 24.4947368,38.0421053 C24.6558028,38.0568673 24.8178814,38.0568673 24.9789474,38.0421053 C25.5565503,37.9438756 26.0795872,37.6412613 26.4526316,37.1894737 L26.4526316,37.1894737 C26.8262954,36.7134261 26.9828843,36.1023473 26.8842105,35.5052632 L25.8315789,28.8 C26.2631579,28.6947368 26.6736842,28.5789474 27.0631579,28.4631579 C27.8968974,28.1688509 28.7034479,27.8025572 29.4736842,27.3684211 L31.2947368,31.9684211 C31.5115289,32.5377387 31.9588638,32.9888969 32.5263158,33.2105263 L32.5263158,33.2105263 C32.7888236,33.3089426 33.0670202,33.3588753 33.3473684,33.3578947 C34.3070468,33.3530138 35.1873244,32.8240396 35.6421053,31.9789474 C35.9367135,31.4513284 35.9903896,30.8225514 35.7894737,30.2526316 L28.9789474,13.0842105 L29.1684211,12.9368421 C29.9821848,12.2453987 30.3803816,11.1822134 30.2210526,10.1263158 C30.1066884,9.11270214 29.4781308,8.2295389 28.5578947,7.78947368 C27.298057,7.33007549 25.9611318,7.11917018 24.6210526,7.16842105 Z M23.7473684,15.2631579 L24.6105263,15.0315789 L27.0210526,21.1263158 L26.2315789,21.1263158 C25.7263158,21.1263158 25.1789474,21.1263158 24.6631579,21.1789474 L23.7473684,15.2631579 Z M18.1368421,16.1157895 L19.0421053,16.0526316 L20,21.9052632 C19.5578947,22.0105263 19.1368421,22.1263158 18.7368421,22.2526316 L17.7578947,22.5789474 L18.1368421,16.1157895 Z" id="Shape"></path>
                <path d="M224.568421,24.7789474 L225.768421,24.7789474 L227.663158,22.8210526 L227.663158,13.3473684 L225.768421,11.5473684 L214.189474,11.5473684 L214.189474,15.1578947 L215.842105,15.1578947 L215.842105,29.9894737 L214.210526,29.9894737 L214.210526,33.6 L221.147368,33.6 L221.147368,29.9894737 L219.494737,29.9894737 L219.494737,24.7789474 L220.747368,24.7789474 L225.084211,33.6 L228.757895,33.6 L228.757895,29.9894737 L227.231579,29.9894737 L224.568421,24.7789474 Z M224.031579,21.1684211 L219.484211,21.1684211 L219.484211,15.1157895 L224.031579,15.1157895 L224.031579,21.1684211 Z" id="Shape" fill-rule="nonzero"></path>
                <path d="M94.7894737,24.7789474 L95.9894737,24.7789474 L97.8947368,22.8210526 L97.8947368,13.3473684 L96,11.5473684 L84.4210526,11.5473684 L84.4210526,15.1578947 L86.0736842,15.1578947 L86.0736842,29.9894737 L84.4315789,29.9894737 L84.4315789,33.6 L91.3684211,33.6 L91.3684211,29.9894737 L89.7052632,29.9894737 L89.7052632,24.7789474 L90.9578947,24.7789474 L95.2947368,33.6 L98.9473684,33.6 L98.9473684,29.9894737 L97.4421053,29.9894737 L94.7894737,24.7789474 Z M94.2526316,21.1684211 L89.7052632,21.1684211 L89.7052632,15.1157895 L94.2526316,15.1157895 L94.2526316,21.1684211 Z" id="Shape" fill-rule="nonzero"></path>
                <path d="M185.936842,11.5052632 L185.936842,15.1157895 L187.589474,15.1157895 L187.589474,29.9894737 L185.936842,29.9894737 L185.936842,33.6 L192.873684,33.6 L192.873684,29.9894737 L191.221053,29.9894737 L191.221053,24.2105263 L197.147368,24.2105263 L199.389474,22 L199.389474,13.5789474 L197.284211,11.4736842 L185.936842,11.5052632 Z M195.789474,20.6842105 L191.242105,20.6842105 L191.242105,15.1157895 L195.789474,15.1157895 L195.789474,20.6842105 Z" id="Shape" fill-rule="nonzero"></path>
                <polygon id="Shape" fill-rule="nonzero" points="230.273684 19.3894737 233.768421 19.3894737 233.768421 15.1157895 236.010526 15.1157895 236.010526 29.9894737 234.357895 29.9894737 234.357895 33.6 241.294737 33.6 241.294737 29.9894737 239.631579 29.9894737 239.631579 15.1157895 241.873684 15.1157895 241.873684 19.3894737 245.378947 19.3894737 245.378947 11.5052632 230.273684 11.5052632"></polygon>
                <polygon id="Shape" fill-rule="nonzero" points="258.978947 17.7052632 258.978947 13.4842105 256.936842 11.5052632 248.863158 11.5052632 246.894737 13.4315789 246.894737 21.8947368 248.957895 23.9578947 255.357895 23.9578947 255.357895 29.9894737 250.515789 29.9894737 250.515789 27.3263158 246.894737 27.3263158 246.894737 31.2421053 249.294737 33.6 256.326316 33.6 258.978947 30.8842105 258.978947 22.4631579 256.915789 20.3789474 250.515789 20.3789474 250.515789 15.1157895 255.357895 15.1157895 255.357895 17.7052632"></polygon>
                <path d="M51.4105263,11.5052632 L51.4105263,15.1157895 L53.0631579,15.1157895 L53.0631579,29.9894737 L51.4105263,29.9894737 L51.4105263,33.6 L62.5789474,33.6 L64.8526316,31.3157895 L64.8526316,22.8947368 L63.2421053,21.2421053 L64.8526316,19.6421053 L64.8526316,13.6842105 L62.6105263,11.4947368 L51.4105263,11.5052632 Z M61.2315789,29.9894737 L56.6947368,29.9894737 L56.6947368,23.3578947 L61.2421053,23.3578947 L61.2315789,29.9894737 Z M61.2315789,19.7157895 L56.6947368,19.7157895 L56.6947368,15.1157895 L61.2421053,15.1157895 L61.2315789,19.7157895 Z" id="Shape" fill-rule="nonzero"></path>
                <path d="M76.1473684,11.5052632 L72.8631579,11.5052632 L67.8842105,29.9894737 L66.3789474,29.9894737 L66.3789474,33.6 L73.3157895,33.6 L73.3157895,29.9894737 L71.4105263,29.9894737 L71.8,28.5263158 L77.1789474,28.5263158 L77.5894737,29.9894737 L75.7894737,29.9894737 L75.7894737,33.6 L82.9157895,33.6 L82.9157895,29.9894737 L81.0526316,29.9894737 L76.1473684,11.5052632 Z M72.7263158,24.9578947 L74.5473684,18.2736842 L76.2526316,24.9578947 L72.7263158,24.9578947 Z" id="Shape" fill-rule="nonzero"></path>
                <polygon id="Shape" fill-rule="nonzero" points="167.178947 29.9894737 162.631579 29.9894737 162.631579 15.1157895 164.284211 15.1157895 164.284211 11.5052632 157.347368 11.5052632 157.347368 15.1157895 159.010526 15.1157895 159.010526 29.9894737 157.347368 29.9894737 157.347368 33.6 170.8 33.6 170.8 24.8315789 167.178947 24.8315789"></polygon>
                <polygon id="Shape" fill-rule="nonzero" points="102.463158 11.5052632 100.494737 13.4315789 100.494737 21.8947368 102.557895 23.9578947 108.957895 23.9578947 108.957895 29.9894737 104.115789 29.9894737 104.115789 27.3263158 100.494737 27.3263158 100.494737 31.2421053 102.894737 33.6 109.926316 33.6 112.578947 30.8842105 112.578947 22.4631579 110.515789 20.3789474 104.115789 20.3789474 104.115789 15.1157895 108.957895 15.1157895 108.957895 17.7052632 112.578947 17.7052632 112.578947 13.4842105 110.536842 11.5052632"></polygon>
                <path d="M146.4,11.5052632 L144.042105,13.8947368 L144.042105,31.2210526 L146.315789,33.6 L153.494737,33.6 L155.789474,31.2210526 L155.789474,13.8842105 L153.463158,11.4947368 L146.4,11.5052632 Z M152.210526,29.9894737 L147.663158,29.9894737 L147.663158,15.1157895 L152.210526,15.1157895 L152.210526,29.9894737 Z" id="Shape" fill-rule="nonzero"></path>
                <polygon id="Shape" fill-rule="nonzero" points="174.284211 11.5052632 172.315789 13.4315789 172.315789 21.8947368 174.378947 23.9578947 180.778947 23.9578947 180.778947 29.9894737 175.936842 29.9894737 175.936842 27.3263158 172.315789 27.3263158 172.315789 31.2421053 174.715789 33.6 181.757895 33.6 184.410526 30.8842105 184.410526 22.4631579 182.336842 20.3789474 175.936842 20.3789474 175.936842 15.1157895 180.778947 15.1157895 180.778947 17.7052632 184.410526 17.7052632 184.410526 13.4842105 182.368421 11.5052632"></polygon>
                <path d="M203.252632,11.5052632 L200.894737,13.8947368 L200.894737,31.2210526 L203.157895,33.6 L210.336842,33.6 L212.715789,31.2105263 L212.715789,13.8842105 L210.389474,11.4947368 L203.252632,11.5052632 Z M209.063158,29.9894737 L204.526316,29.9894737 L204.526316,15.1157895 L209.073684,15.1157895 L209.063158,29.9894737 Z" id="Shape" fill-rule="nonzero"></path>
                <polygon id="Shape" fill-rule="nonzero" points="114.115789 19.3894737 117.610526 19.3894737 117.610526 15.1157895 119.852632 15.1157895 119.852632 29.9894737 118.2 29.9894737 118.2 33.6 125.126316 33.6 125.126316 29.9894737 123.473684 29.9894737 123.473684 15.1157895 125.715789 15.1157895 125.715789 19.3894737 129.210526 19.3894737 129.210526 11.5052632 114.115789 11.5052632"></polygon>
                <path d="M133.084211,11.5052632 L130.726316,13.8947368 L130.726316,31.2210526 L132.957895,33.6105263 L140.136842,33.6105263 L142.515789,31.2210526 L142.515789,13.8842105 L140.189474,11.4947368 L133.084211,11.5052632 Z M138.947368,29.9894737 L134.4,29.9894737 L134.4,15.1157895 L138.947368,15.1157895 L138.947368,29.9894737 Z" id="Shape" fill-rule="nonzero"></path>
                <path d="M117.768421,5.42105263 L117.252632,3.97894737 L116.747368,5.43157895 L116.610526,5.43157895 L115.2,5.43157895 L116.431579,6.36842105 C116.431579,6.36842105 116.284211,6.88421053 115.989474,7.83157895 L117.252632,6.95789474 L118.526316,7.83157895 L118.305263,7.09473684 L118.073684,6.35789474 L119.305263,5.42105263 L117.852632,5.42105263 L117.768421,5.42105263 Z" id="Shape" fill-rule="nonzero"></path>
                <path d="M134.947368,5.42105263 L134.431579,3.97894737 L133.926316,5.43157895 L133.789474,5.43157895 L132.378947,5.43157895 L133.610526,6.36842105 C133.610526,6.36842105 133.463158,6.88421053 133.168421,7.83157895 L134.431579,6.95789474 L135.705263,7.83157895 L135.484211,7.09473684 L135.252632,6.35789474 L136.484211,5.42105263 L135.031579,5.42105263 L134.947368,5.42105263 Z" id="Shape" fill-rule="nonzero"></path>
                <path d="M143.547368,5.42105263 L143.031579,3.97894737 L142.526316,5.43157895 L142.389474,5.43157895 L140.978947,5.43157895 L142.210526,6.36842105 C142.210526,6.36842105 142.063158,6.88421053 141.768421,7.83157895 L143.031579,6.95789474 L144.305263,7.83157895 L144.084211,7.09473684 L143.852632,6.35789474 L145.084211,5.42105263 L143.631579,5.42105263 L143.547368,5.42105263 Z" id="Shape" fill-rule="nonzero"></path>
                <path d="M126.315789,5.42105263 L125.8,3.97894737 L125.294737,5.43157895 L125.157895,5.43157895 L123.747368,5.43157895 L124.978947,6.36842105 C124.978947,6.36842105 124.831579,6.88421053 124.536842,7.83157895 L125.8,6.95789474 L127.073684,7.83157895 L126.852632,7.09473684 L126.621053,6.35789474 L127.852632,5.42105263 L126.4,5.42105263 L126.315789,5.42105263 Z" id="Shape" fill-rule="nonzero"></path>
                <path d="M169.326316,5.42105263 L168.810526,3.97894737 L168.305263,5.43157895 L168.168421,5.43157895 L166.757895,5.43157895 L167.989474,6.36842105 C167.989474,6.36842105 167.842105,6.88421053 167.547368,7.83157895 L168.810526,6.95789474 L170.084211,7.83157895 L169.863158,7.09473684 L169.631579,6.35789474 L170.863158,5.42105263 L169.410526,5.42105263 L169.326316,5.42105263 Z" id="Shape" fill-rule="nonzero"></path>
                <path d="M160.726316,5.42105263 L160.210526,3.97894737 L159.705263,5.43157895 L159.568421,5.43157895 L158.157895,5.43157895 L159.389474,6.36842105 C159.389474,6.36842105 159.242105,6.88421053 158.947368,7.83157895 L160.210526,6.95789474 L161.484211,7.83157895 L161.263158,7.09473684 L161.031579,6.35789474 L162.263158,5.42105263 L160.810526,5.42105263 L160.726316,5.42105263 Z" id="Shape" fill-rule="nonzero"></path>
                <path d="M152.136842,5.42105263 L151.578947,3.97894737 L151.073684,5.43157895 L150.936842,5.43157895 L149.526316,5.43157895 L150.757895,6.36842105 C150.757895,6.36842105 150.610526,6.88421053 150.315789,7.83157895 L151.578947,6.95789474 L152.852632,7.83157895 L152.631579,7.09473684 L152.4,6.35789474 L153.684211,5.46315789 L152.231579,5.46315789 L152.136842,5.42105263 Z" id="Shape" fill-rule="nonzero"></path>
                <path d="M109.168421,5.42105263 L108.652632,3.97894737 L108.147368,5.43157895 L108.010526,5.43157895 L106.6,5.43157895 L107.831579,6.36842105 C107.831579,6.36842105 107.684211,6.88421053 107.389474,7.83157895 L108.652632,6.95789474 L109.926316,7.83157895 L109.705263,7.09473684 L109.473684,6.35789474 L110.705263,5.42105263 L109.252632,5.42105263 L109.168421,5.42105263 Z" id="Shape" fill-rule="nonzero"></path>
                <path d="M66.2,5.42105263 L65.6842105,3.97894737 L65.1789474,5.43157895 L65.0526316,5.43157895 L63.6421053,5.43157895 L64.8736842,6.36842105 C64.8736842,6.36842105 64.7263158,6.88421053 64.4315789,7.83157895 L65.6947368,6.95789474 L66.9684211,7.83157895 L66.7473684,7.09473684 L66.5157895,6.35789474 L67.7473684,5.42105263 L66.3157895,5.44210526 L66.2,5.42105263 Z" id="Shape" fill-rule="nonzero"></path>
                <path d="M57.6105263,5.42105263 L57.0947368,3.97894737 L56.5894737,5.43157895 L56.4526316,5.43157895 L55.0421053,5.43157895 L56.2736842,6.36842105 C56.2736842,6.36842105 56.1263158,6.88421053 55.8315789,7.83157895 L57.0947368,6.95789474 L58.3684211,7.83157895 L58.1473684,7.09473684 L57.8947368,6.4 L59.1263158,5.46315789 L57.6736842,5.46315789 L57.6105263,5.42105263 Z" id="Shape" fill-rule="nonzero"></path>
                <path d="M253.484211,7.87368421 L254.747368,7 L256.021053,7.87368421 L255.8,7.13684211 L255.568421,6.4 L256.842105,5.46315789 L255.389474,5.46315789 L255.294737,5.46315789 L254.736842,3.97894737 L254.231579,5.43157895 L254.094737,5.43157895 L252.684211,5.43157895 L253.915789,6.36842105 C253.915789,6.36842105 253.778947,6.91578947 253.484211,7.87368421 Z" id="Shape" fill-rule="nonzero"></path>
                <path d="M91.9894737,5.42105263 L91.4736842,3.97894737 L90.9684211,5.43157895 L90.8315789,5.43157895 L89.4210526,5.43157895 L90.6526316,6.36842105 C90.6526316,6.36842105 90.5052632,6.88421053 90.2105263,7.83157895 L91.4736842,6.95789474 L92.7473684,7.83157895 L92.5263158,7.09473684 L92.2947368,6.35789474 L93.5263158,5.42105263 L92.0736842,5.42105263 L91.9894737,5.42105263 Z" id="Shape" fill-rule="nonzero"></path>
                <path d="M74.8,5.42105263 L74.2842105,3.97894737 L73.7789474,5.43157895 L73.6842105,5.43157895 L72.2736842,5.43157895 L73.5052632,6.36842105 C73.5052632,6.36842105 73.3578947,6.88421053 73.0631579,7.83157895 L74.3263158,6.95789474 L75.6,7.83157895 L75.3789474,7.09473684 L75.1473684,6.35789474 L76.3789474,5.42105263 L74.9263158,5.42105263 L74.8,5.42105263 Z" id="Shape" fill-rule="nonzero"></path>
                <path d="M100.578947,5.42105263 L100.063158,3.97894737 L99.5578947,5.43157895 L99.4210526,5.43157895 L98.0105263,5.43157895 L99.2421053,6.36842105 C99.2421053,6.36842105 99.0947368,6.88421053 98.8,7.83157895 L100.063158,6.95789474 L101.336842,7.83157895 L101.115789,7.09473684 L100.884211,6.35789474 L102.105263,5.46315789 L100.652632,5.46315789 L100.578947,5.42105263 Z" id="Shape" fill-rule="nonzero"></path>
                <path d="M83.3894737,5.42105263 L82.8736842,3.97894737 L82.3684211,5.43157895 L82.2315789,5.43157895 L80.8210526,5.43157895 L82.1052632,6.41052632 C82.1052632,6.41052632 81.9578947,6.92631579 81.6631579,7.87368421 L82.9263158,7 L84.2105263,7.87368421 L83.9894737,7.13684211 L83.7578947,6.4 L84.9894737,5.46315789 L83.5368421,5.46315789 L83.3894737,5.42105263 Z" id="Shape" fill-rule="nonzero"></path>
                <path d="M177.894737,5.42105263 L177.378947,3.97894737 L176.873684,5.43157895 L176.736842,5.43157895 L175.326316,5.43157895 L176.557895,6.36842105 C176.557895,6.36842105 176.410526,6.88421053 176.115789,7.83157895 L177.378947,6.95789474 L178.652632,7.83157895 L178.431579,7.09473684 L178.2,6.35789474 L179.431579,5.42105263 L177.978947,5.42105263 L177.894737,5.42105263 Z" id="Shape" fill-rule="nonzero"></path>
                <path d="M212.294737,5.42105263 L211.778947,3.97894737 L211.273684,5.43157895 L211.136842,5.43157895 L209.726316,5.43157895 L210.957895,6.36842105 C210.957895,6.36842105 210.810526,6.88421053 210.515789,7.83157895 L211.778947,6.95789474 L213.052632,7.83157895 L212.831579,7.09473684 L212.6,6.35789474 L213.831579,5.42105263 L212.378947,5.42105263 L212.294737,5.42105263 Z" id="Shape" fill-rule="nonzero"></path>
                <path d="M238.073684,5.42105263 L237.557895,3.97894737 L237.052632,5.43157895 L236.915789,5.43157895 L235.505263,5.43157895 L236.736842,6.36842105 C236.736842,6.36842105 236.589474,6.88421053 236.294737,7.83157895 L237.557895,6.95789474 L238.831579,7.83157895 L238.610526,7.09473684 L238.378947,6.35789474 L239.610526,5.42105263 L238.157895,5.42105263 L238.073684,5.42105263 Z" id="Shape" fill-rule="nonzero"></path>
                <path d="M203.694737,5.42105263 L203.157895,3.97894737 L202.652632,5.43157895 L202.515789,5.43157895 L201.105263,5.43157895 L202.336842,6.36842105 C202.336842,6.36842105 202.189474,6.88421053 201.894737,7.83157895 L203.157895,6.95789474 L204.431579,7.83157895 L204.210526,7.09473684 L203.978947,6.35789474 L205.263158,5.46315789 L203.810526,5.46315789 L203.694737,5.42105263 Z" id="Shape" fill-rule="nonzero"></path>
                <path d="M220.884211,5.42105263 L220.368421,3.97894737 L219.863158,5.43157895 L219.726316,5.43157895 L218.315789,5.43157895 L219.547368,6.36842105 C219.547368,6.36842105 219.4,6.88421053 219.105263,7.83157895 L220.368421,6.95789474 L221.642105,7.83157895 L221.421053,7.09473684 L221.189474,6.35789474 L222.421053,5.42105263 L220.968421,5.42105263 L220.884211,5.42105263 Z" id="Shape" fill-rule="nonzero"></path>
                <path d="M229.473684,5.42105263 L228.957895,3.97894737 L228.421053,5.43157895 L228.284211,5.43157895 L226.873684,5.43157895 L228.105263,6.36842105 C228.105263,6.36842105 227.957895,6.88421053 227.663158,7.83157895 L228.926316,6.95789474 L230.2,7.83157895 L229.978947,7.09473684 L229.747368,6.35789474 L230.978947,5.42105263 L229.526316,5.42105263 L229.473684,5.42105263 Z" id="Shape" fill-rule="nonzero"></path>
                <path d="M195.105263,5.42105263 L194.589474,3.97894737 L194.084211,5.43157895 L193.947368,5.43157895 L192.536842,5.43157895 L193.768421,6.36842105 C193.768421,6.36842105 193.621053,6.88421053 193.326316,7.83157895 L194.589474,6.95789474 L195.863158,7.83157895 L195.642105,7.09473684 L195.410526,6.35789474 L196.642105,5.42105263 L195.189474,5.42105263 L195.105263,5.42105263 Z" id="Shape" fill-rule="nonzero"></path>
                <path d="M186.505263,5.42105263 L185.989474,3.97894737 L185.484211,5.43157895 L185.347368,5.43157895 L183.936842,5.43157895 L185.168421,6.36842105 C185.168421,6.36842105 185.021053,6.88421053 184.726316,7.83157895 L185.989474,6.95789474 L187.263158,7.83157895 L187.042105,7.09473684 L186.810526,6.35789474 L188.042105,5.42105263 L186.589474,5.42105263 L186.505263,5.42105263 Z" id="Shape" fill-rule="nonzero"></path>
                <path d="M246.663158,5.42105263 L246.147368,3.97894737 L245.642105,5.43157895 L245.505263,5.43157895 L244.094737,5.43157895 L245.326316,6.36842105 C245.326316,6.36842105 245.178947,6.88421053 244.884211,7.83157895 L246.147368,6.95789474 L247.421053,7.83157895 L247.2,7.09473684 L246.968421,6.35789474 L248.2,5.42105263 L246.747368,5.42105263 L246.663158,5.42105263 Z" id="Shape" fill-rule="nonzero"></path>
                <path d="M91.8736842,38.5789474 L91.7789474,38.5789474 L91.2631579,37.1368421 L90.7578947,38.5894737 L90.6210526,38.5894737 L89.2105263,38.5894737 L90.4421053,39.5263158 C90.4421053,39.5263158 90.2947368,40.0421053 90,40.9894737 L91.2631579,40.1157895 L92.5368421,40.9894737 L92.3157895,40.2526316 L92.0842105,39.5157895 L93.3157895,38.5789474 L91.8736842,38.5789474 Z" id="Shape" fill-rule="nonzero"></path>
                <path d="M57.4947368,38.5789474 L57.4,38.5789474 L56.8842105,37.1368421 L56.3789474,38.5894737 L56.2421053,38.5894737 L54.8315789,38.5894737 L56.0631579,39.5263158 C56.0631579,39.5263158 55.9157895,40.0421053 55.6210526,40.9894737 L56.8842105,40.1157895 L58.1578947,40.9894737 L57.9368421,40.2526316 L57.7052632,39.5157895 L58.9473684,38.6 L57.4947368,38.5789474 Z" id="Shape" fill-rule="nonzero"></path>
                <path d="M100.463158,38.5789474 L100.368421,38.5789474 L99.8526316,37.1368421 L99.3473684,38.5894737 L99.2105263,38.5894737 L97.8,38.5894737 L99.0315789,39.5263158 C99.0315789,39.5263158 98.8842105,40.0421053 98.5894737,40.9894737 L99.8526316,40.1157895 L101.126316,40.9894737 L100.905263,40.2526316 L100.673684,39.5157895 L101.905263,38.5789474 L100.463158,38.5789474 Z" id="Shape" fill-rule="nonzero"></path>
                <path d="M255.147368,38.5789474 L255.052632,38.5789474 L254.536842,37.1368421 L254.031579,38.5894737 L253.894737,38.5894737 L252.484211,38.5894737 L253.715789,39.5263158 C253.715789,39.5263158 253.568421,40.0421053 253.273684,40.9894737 L254.536842,40.1157895 L255.789474,41.0526316 L255.568421,40.3157895 L255.336842,39.5789474 L256.568421,38.6421053 L255.147368,38.5789474 Z" id="Shape" fill-rule="nonzero"></path>
                <path d="M186.4,38.5789474 L186.315789,38.5789474 L185.8,37.1368421 L185.263158,38.5684211 L185.126316,38.5684211 L183.715789,38.5684211 L184.947368,39.5052632 C184.947368,39.5052632 184.8,40.0210526 184.505263,40.9684211 L185.768421,40.0947368 L187.042105,40.9684211 L186.821053,40.2315789 L186.589474,39.4947368 L187.821053,38.5578947 L186.4,38.5789474 Z" id="Shape" fill-rule="nonzero"></path>
                <path d="M237.957895,38.5789474 L237.894737,38.5789474 L237.378947,37.1368421 L236.842105,38.5684211 L236.705263,38.5684211 L235.294737,38.5684211 L236.526316,39.5052632 C236.526316,39.5052632 236.378947,40.0210526 236.084211,40.9684211 L237.347368,40.0947368 L238.621053,40.9684211 L238.4,40.2315789 L238.168421,39.4947368 L239.4,38.5578947 L237.957895,38.5789474 Z" id="Shape" fill-rule="nonzero"></path>
                <path d="M66.0947368,38.5789474 L66,38.5789474 L65.4842105,37.1368421 L64.9789474,38.5894737 L64.8421053,38.5894737 L63.4315789,38.5894737 L64.6631579,39.5263158 C64.6631579,39.5263158 64.5263158,40.0631579 64.2105263,41.0526316 L65.4736842,40.1789474 L66.7473684,41.0526316 L66.5263158,40.3157895 L66.2947368,39.5789474 L67.5263158,38.6421053 L66.0947368,38.5789474 Z" id="Shape" fill-rule="nonzero"></path>
                <path d="M74.7368421,38.5789474 L74.6421053,38.5789474 L74.1263158,37.1368421 L73.6210526,38.5894737 L73.4842105,38.5894737 L72.0736842,38.5894737 L73.3052632,39.5263158 C73.3052632,39.5263158 73.1578947,40.0421053 72.8631579,40.9894737 L74.1263158,40.1157895 L75.3684211,41.0526316 L75.1473684,40.3157895 L74.9157895,39.5789474 L76.1473684,38.6421053 L74.7368421,38.5789474 Z" id="Shape" fill-rule="nonzero"></path>
                <path d="M83.2736842,38.5789474 L83.1578947,38.5789474 L82.6421053,37.1368421 L82.1368421,38.5894737 L82,38.5894737 L80.5894737,38.5894737 L81.8210526,39.5263158 C81.8210526,39.5263158 81.6736842,40.0421053 81.3789474,40.9894737 L82.6421053,40.1157895 L83.9157895,40.9894737 L83.6947368,40.2526316 L83.4631579,39.5157895 L84.6947368,38.5789474 L83.2736842,38.5789474 Z" id="Shape" fill-rule="nonzero"></path>
                <path d="M229.368421,38.5789474 L229.273684,38.5789474 L228.757895,37.1368421 L228.252632,38.5894737 L228.115789,38.5894737 L226.705263,38.5894737 L227.936842,39.5263158 C227.936842,39.5263158 227.789474,40.0421053 227.494737,40.9894737 L228.757895,40.1157895 L230.031579,40.9894737 L229.810526,40.2526316 L229.578947,39.5157895 L230.810526,38.5789474 L229.368421,38.5789474 Z" id="Shape" fill-rule="nonzero"></path>
                <path d="M246.547368,38.5789474 L246.452632,38.5789474 L245.936842,37.1368421 L245.431579,38.5894737 L245.263158,38.5894737 L243.852632,38.5894737 L245.084211,39.5263158 C245.084211,39.5263158 244.936842,40.0421053 244.642105,40.9894737 L245.905263,40.1157895 L247.178947,40.9894737 L246.957895,40.2526316 L246.726316,39.5157895 L247.957895,38.5789474 L246.547368,38.5789474 Z" id="Shape" fill-rule="nonzero"></path>
                <path d="M152.021053,38.5789474 L151.926316,38.5789474 L151.410526,37.1368421 L150.905263,38.5894737 L150.768421,38.5894737 L149.357895,38.5894737 L150.589474,39.5263158 C150.589474,39.5263158 150.442105,40.0421053 150.147368,40.9894737 L151.410526,40.1157895 L152.684211,40.9894737 L152.463158,40.2526316 L152.231579,39.5157895 L153.463158,38.5789474 L152.021053,38.5789474 Z" id="Shape" fill-rule="nonzero"></path>
                <path d="M160.621053,38.5789474 L160.526316,38.5789474 L160,37.1157895 L159.494737,38.5684211 L159.357895,38.5684211 L157.947368,38.5684211 L159.178947,39.5052632 C159.178947,39.5052632 159.031579,40.0210526 158.736842,40.9684211 L160,40.0947368 L161.273684,40.9684211 L161.052632,40.2315789 L160.821053,39.4947368 L162.052632,38.5578947 L160.621053,38.5789474 Z" id="Shape" fill-rule="nonzero"></path>
                <path d="M203.589474,38.5789474 L203.494737,38.5789474 L202.978947,37.1368421 L202.473684,38.5894737 L202.336842,38.5894737 L200.926316,38.5894737 L202.157895,39.5263158 C202.157895,39.5263158 202.010526,40.0421053 201.715789,40.9894737 L202.978947,40.1157895 L204.252632,40.9894737 L204.031579,40.2526316 L203.8,39.5157895 L205.031579,38.5789474 L203.589474,38.5789474 Z" id="Shape" fill-rule="nonzero"></path>
                <path d="M109.063158,38.5789474 L108.968421,38.5789474 L108.421053,37.1157895 L107.915789,38.5684211 L107.778947,38.5684211 L106.368421,38.5684211 L107.6,39.5052632 C107.6,39.5052632 107.452632,40.0210526 107.157895,40.9684211 L108.421053,40.0947368 L109.694737,40.9684211 L109.473684,40.2315789 L109.242105,39.4947368 L110.473684,38.5578947 L109.063158,38.5789474 Z" id="Shape" fill-rule="nonzero"></path>
                <path d="M194.989474,38.5789474 L194.894737,38.5789474 L194.378947,37.1368421 L193.873684,38.5894737 L193.736842,38.5894737 L192.326316,38.5894737 L193.557895,39.5263158 C193.557895,39.5263158 193.410526,40.0421053 193.115789,40.9894737 L194.378947,40.1157895 L195.652632,40.9894737 L195.431579,40.2526316 L195.2,39.5157895 L196.431579,38.5789474 L194.989474,38.5789474 Z" id="Shape" fill-rule="nonzero"></path>
                <path d="M177.8,38.5789474 L177.705263,38.5789474 L177.189474,37.1368421 L176.684211,38.5894737 L176.547368,38.5894737 L175.136842,38.5894737 L176.368421,39.5263158 C176.368421,39.5263158 176.221053,40.0421053 175.926316,40.9894737 L177.189474,40.1157895 L178.463158,40.9894737 L178.242105,40.2526316 L178.010526,39.5157895 L179.242105,38.5789474 L177.8,38.5789474 Z" id="Shape" fill-rule="nonzero"></path>
                <path d="M169.210526,38.5789474 L169.115789,38.5789474 L168.6,37.1368421 L168.094737,38.5894737 L167.957895,38.5894737 L166.547368,38.5894737 L167.778947,39.5263158 C167.778947,39.5263158 167.631579,40.0421053 167.336842,40.9894737 L168.6,40.1157895 L169.873684,40.9894737 L169.652632,40.2526316 L169.421053,39.5157895 L170.652632,38.5789474 L169.210526,38.5789474 Z" id="Shape" fill-rule="nonzero"></path>
                <path d="M220.768421,38.5789474 L220.673684,38.5789474 L220.157895,37.1368421 L219.652632,38.5894737 L219.515789,38.5894737 L218.105263,38.5894737 L219.336842,39.5263158 C219.336842,39.5263158 219.189474,40.0421053 218.894737,40.9894737 L220.157895,40.1157895 L221.431579,40.9894737 L221.210526,40.2526316 L220.978947,39.5157895 L222.210526,38.5789474 L220.768421,38.5789474 Z" id="Shape" fill-rule="nonzero"></path>
                <path d="M117.652632,38.5789474 L117.557895,38.5789474 L117.042105,37.1368421 L116.536842,38.5894737 L116.4,38.5894737 L114.989474,38.5894737 L116.221053,39.5263158 C116.221053,39.5263158 116.073684,40.0421053 115.778947,40.9894737 L117.042105,40.1157895 L118.315789,40.9894737 L118.094737,40.2526316 L117.863158,39.5157895 L119.094737,38.5789474 L117.652632,38.5789474 Z" id="Shape" fill-rule="nonzero"></path>
                <path d="M126.242105,38.5789474 L126.147368,38.5789474 L125.631579,37.1368421 L125.126316,38.5894737 L124.989474,38.5894737 L123.578947,38.5894737 L124.810526,39.5263158 C124.810526,39.5263158 124.663158,40.0421053 124.368421,40.9894737 L125.631579,40.1157895 L126.905263,40.9894737 L126.684211,40.2526316 L126.452632,39.5157895 L127.684211,38.5789474 L126.242105,38.5789474 Z" id="Shape" fill-rule="nonzero"></path>
                <path d="M134.842105,38.5789474 L134.736842,38.5789474 L134.221053,37.1368421 L133.684211,38.5684211 L133.547368,38.5684211 L132.136842,38.5684211 L133.368421,39.5052632 C133.368421,39.5052632 133.221053,40.0210526 132.926316,40.9684211 L134.189474,40.0947368 L135.463158,40.9684211 L135.242105,40.2315789 L135.010526,39.4947368 L136.242105,38.5578947 L134.842105,38.5789474 Z" id="Shape" fill-rule="nonzero"></path>
                <path d="M143.431579,38.5789474 L143.336842,38.5789474 L142.821053,37.1368421 L142.315789,38.5894737 L142.178947,38.5894737 L140.768421,38.5894737 L142,39.5263158 C142,39.5263158 141.852632,40.0421053 141.557895,40.9894737 L142.821053,40.1157895 L144.094737,40.9894737 L143.873684,40.2526316 L143.642105,39.5157895 L144.873684,38.5789474 L143.431579,38.5789474 Z" id="Shape" fill-rule="nonzero"></path>
                <path d="M212.178947,38.5789474 L212.084211,38.5789474 L211.578947,37.1157895 L211.073684,38.5684211 L210.936842,38.5684211 L209.526316,38.5684211 L210.757895,39.5052632 C210.757895,39.5052632 210.610526,40.0210526 210.315789,40.9684211 L211.578947,40.0947368 L212.852632,40.9684211 L212.631579,40.2315789 L212.4,39.4947368 L213.631579,38.5578947 L212.178947,38.5789474 Z" id="Shape" fill-rule="nonzero"></path>
            </g>
        </g>
    </g>
</svg>