<?xml version="1.0" encoding="UTF-8"?>
<svg width="578px" height="170px" viewBox="0 0 578 170" version="1.1" xmlns="http://www.w3.org/2000/svg" xmlns:xlink="http://www.w3.org/1999/xlink">
    <!-- Generator: Sketch 45.2 (43514) - http://www.bohemiancoding.com/sketch -->
    <title>loginLogo</title>
    <desc>Created with Sketch.</desc>
    <defs></defs>
    <g id="Page-1" stroke="none" stroke-width="1" fill="none" fill-rule="evenodd">
        <g id="loginLogo" fill="#FFFFFF">
            <path d="M370.16,139 L377.76,139 L377.76,71.36 L395.43,71.36 L395.43,65.66 L377.76,65.66 L377.76,7.52 L396.19,7.52 L396.19,1.82 L370.16,1.82 L370.16,139 Z M402.46,139 L410.06,139 L410.06,1.82 L402.46,1.82 L402.46,139 Z M441.22,78.58 L448.82,78.58 L448.82,131.78 C446.92,132.92 443.5,134.06 439.89,134.06 C434.76,134.06 430.77,130.83 430.77,125.51 L430.77,16.83 C430.77,10.75 434.76,6.76 439.89,6.76 C445.02,6.76 448.82,10.75 448.82,16.83 L448.82,38.11 L456.42,38.11 L456.42,15.88 C456.42,6.38 450.53,1.06 439.89,1.06 C429.25,1.06 423.17,6.38 423.17,15.88 L423.17,124.94 C423.17,134.44 429.25,139.76 439.89,139.76 C446.92,139.76 452.43,138.05 455.47,136.15 L456.42,135.58 L456.42,72.88 L441.22,72.88 L441.22,78.58 Z M468.96,139 L476.56,139 L476.56,71.36 L494.61,71.36 L494.61,139 L502.21,139 L502.21,1.82 L494.61,1.82 L494.61,65.66 L476.56,65.66 L476.56,1.82 L468.96,1.82 L468.96,139 Z M520.64,139 L528.24,139 L528.24,7.52 L541.73,7.52 L541.73,1.82 L507.15,1.82 L507.15,7.52 L520.64,7.52 L520.64,139 Z M550.85,100.81 L544.01,100.81 L544.01,125.13 C544.01,134.44 548.38,139.76 560.16,139.76 C572.13,139.76 576.5,134.44 576.5,125.7 L576.5,99.86 C576.5,92.26 574.03,85.61 570.8,79.15 L555.22,49.32 C553.13,44.76 552.18,40.77 552.18,36.21 L552.18,14.93 C552.18,10.37 555.03,6.76 560.35,6.76 C565.67,6.76 568.52,9.04 568.52,14.55 L568.52,38.3 L575.36,38.3 L575.36,13.79 C575.36,4.86 570.04,1.06 559.78,1.06 C550.09,1.06 544.01,6.38 544.01,15.31 L544.01,35.26 C544.01,40.58 545.72,47.8 548.95,53.88 L564.91,84.09 C567.57,90.36 568.9,94.54 568.9,101.76 L568.9,125.32 C568.9,131.59 566.05,134.06 559.59,134.06 C552.56,134.06 550.85,130.26 550.85,125.7 L550.85,100.81 Z" id="Fights"></path>
            <path d="M3.35,139 L30.71,139 L30.71,133.3 L10.95,133.3 L10.95,71.36 L28.24,71.36 L28.24,65.66 L10.95,65.66 L10.95,7.52 L29.38,7.52 L29.38,1.82 L3.35,1.82 L3.35,139 Z M46.48,139 L56.74,139 L71.56,1.82 L64.15,1.82 L55.22,92.26 C53.89,105.94 53.51,119.62 51.99,133.3 L51.61,133.3 C50.47,119.62 49.71,106.32 48.38,92.26 L39.26,1.82 L31.66,1.82 L46.48,139 Z M77.26,139 L104.62,139 L104.62,133.3 L84.86,133.3 L84.86,71.36 L102.15,71.36 L102.15,65.66 L84.86,65.66 L84.86,7.52 L103.29,7.52 L103.29,1.82 L77.26,1.82 L77.26,139 Z M112.41,139 L120.01,139 L120.01,71.36 L127.04,71.36 C134.64,71.36 137.49,76.11 137.49,81.24 L137.49,139 L145.09,139 L145.09,81.24 C145.09,72.88 140.15,69.46 133.31,68.89 L133.31,68.51 C143,67.75 145.09,62.43 145.09,55.02 L145.09,14.55 C145.09,6 138.63,1.82 129.51,1.82 L112.41,1.82 L112.41,139 Z M120.01,65.66 L120.01,7.52 L128.18,7.52 C134.26,7.52 137.49,10.18 137.49,16.07 L137.49,56.54 C137.49,62.62 133.88,65.66 127.42,65.66 L120.01,65.66 Z M169.6,76.11 L169.22,76.11 L157.44,1.82 L149.84,1.82 L165.61,84.85 L165.61,139 L173.21,139 L173.21,84.85 L188.98,1.82 L181.38,1.82 L169.6,76.11 Z M195.06,139 L213.49,139 C222.04,139 228.31,134.63 228.31,124.37 L228.31,81.05 C228.31,71.17 222.61,68.7 215.39,68.32 L215.39,67.94 C221.47,67.56 227.36,64.14 227.36,56.35 L227.36,16.45 C227.36,6 220.9,1.82 211.4,1.82 L195.06,1.82 L195.06,139 Z M202.66,65.66 L202.66,7.52 L210.45,7.52 C217.86,7.52 219.76,9.99 219.76,16.07 L219.76,55.97 C219.76,60.72 217.86,65.66 210.83,65.66 L202.66,65.66 Z M210.83,71.36 C217.48,71.36 220.71,74.4 220.71,81.24 L220.71,124.94 C220.71,130.64 218.05,133.3 210.45,133.3 L202.66,133.3 L202.66,71.36 L210.83,71.36 Z M274.1,15.88 C274.1,6.38 268.21,1.06 257.57,1.06 C246.93,1.06 240.85,6.38 240.85,15.88 L240.85,124.94 C240.85,134.44 246.93,139.76 257.57,139.76 C268.21,139.76 274.1,134.44 274.1,124.94 L274.1,15.88 Z M266.5,124.75 C266.5,130.83 263.08,134.06 257.57,134.06 C252.06,134.06 248.45,130.83 248.45,124.75 L248.45,16.07 C248.45,9.99 252.06,6.76 257.57,6.76 C263.08,6.76 266.5,9.99 266.5,16.07 L266.5,124.75 Z M286.64,139 L302.79,139 C314,139 319.89,134.63 319.89,124.37 L319.89,16.45 C319.89,6.19 314,1.82 302.79,1.82 L286.64,1.82 L286.64,139 Z M294.24,133.3 L294.24,7.52 L302.03,7.52 C308.87,7.52 312.29,9.99 312.29,15.88 L312.29,124.94 C312.29,130.83 308.87,133.3 302.03,133.3 L294.24,133.3 Z M345.73,76.11 L345.35,76.11 L333.57,1.82 L325.97,1.82 L341.74,84.85 L341.74,139 L349.34,139 L349.34,84.85 L365.11,1.82 L357.51,1.82 L345.73,76.11 Z" id="Everybody"></path>
        </g>
    </g>
</svg>