<?xml version="1.0" encoding="UTF-8"?>
<svg width="323px" height="51px" viewBox="0 0 323 51" version="1.1" xmlns="http://www.w3.org/2000/svg" xmlns:xlink="http://www.w3.org/1999/xlink">
    <!-- Generator: Sketch 48.1 (47250) - http://www.bohemiancoding.com/sketch -->
    <title>fritz</title>
    <desc>Created with Sketch.</desc>
    <defs></defs>
    <g id="Page-1" stroke="none" stroke-width="1" fill="none" fill-rule="evenodd">
        <g id="fritz" fill="#FFFFFF" fill-rule="nonzero">
            <path d="M79.685,37.717 L82.655,37.717 L82.655,28.499 L90.709,28.499 L90.709,25.566 L82.655,25.566 L82.655,15.65 L92.841,15.65 L92.841,12.682 L79.685,12.682 L79.685,37.717 Z M129.576,21.708 C129.576,16.663 125.435,12.7 120.176,12.7 L116.28,12.7 L116.28,37.7 L119.233,37.7 L119.233,30.891 L120.351,30.873 C121.032,30.855 121.731,30.768 122.413,30.611 L126.589,37.715 L129.996,37.715 L125.174,29.492 C127.881,27.836 129.576,24.973 129.576,21.708 Z M120.315,27.94 L119.232,27.94 L119.232,15.65 L120.175,15.65 C123.862,15.65 126.622,18.269 126.622,21.708 C126.623,25.13 123.862,27.87 120.315,27.94 Z M152.843,37.717 L155.796,37.717 L155.796,12.7 L152.843,12.7 L152.843,37.717 Z M179.223,15.563 L184.395,15.563 L184.395,37.717 L187.365,37.717 L187.365,15.563 L192.275,15.563 L192.275,12.613 L179.223,12.613 L179.223,15.563 Z M216.743,12.683 L216.743,15.633 L227.401,15.633 L215.572,37.717 L231.734,37.717 L231.734,34.767 L220.517,34.767 L232.345,12.683 L216.743,12.683 Z M254.984,34.696 C254.145,34.696 253.428,35.36 253.428,36.251 C253.428,37.089 254.145,37.804 254.984,37.804 C255.875,37.804 256.539,37.089 256.539,36.251 C256.539,35.36 255.875,34.696 254.984,34.696 Z M286.456,12.7 L277.545,37.717 L280.638,37.717 L282,33.981 L291.382,33.981 L292.763,37.716 L295.856,37.716 L286.7,12.7 L286.456,12.7 Z M282.874,31.136 L286.578,20.19 L290.37,31.136 L282.874,31.136 Z M319.132,12.7 L319.132,37.717 L322.085,37.717 L322.085,12.7 L319.132,12.7 Z M33.18,0 L26.793,9.572 L20.406,0 L6.637,0 L0,10.112 L26.71,50.392 L53.419,10.111 L46.618,0 L33.18,0 Z M2.655,10.111 L7.923,1.957 L19.121,1.957 L25.567,11.673 L21.064,18.265 L7.939,18.265 L2.655,10.111 Z M9.12,20.222 L19.884,20.222 L14.339,28.088 L9.12,20.222 Z M25.88,45.528 L16.851,31.801 L25.88,31.801 L25.88,45.528 Z M25.88,30.007 L15.854,30.007 L22.289,20.222 L25.88,20.222 L25.88,30.007 Z M23.479,18.265 L26.792,13.434 L30.105,18.265 L23.479,18.265 Z M27.706,45.528 L27.706,31.802 L36.735,31.802 L27.706,45.528 Z M27.706,30.007 L27.706,20.222 L31.297,20.222 L37.732,30.007 L27.706,30.007 Z M39.152,28.05 L33.702,20.222 L44.3,20.222 L39.152,28.05 Z M45.647,18.265 L32.522,18.265 L28.019,11.673 L34.3,1.957 L45.498,1.957 L50.932,10.111 L45.647,18.265 Z" id="Shape"></path>
        </g>
    </g>
</svg>